<?xml version="1.0" encoding="UTF-8" standalone="no"?>
<!DOCTYPE svg PUBLIC "-//W3C//DTD SVG 1.1//EN" "http://www.w3.org/Graphics/SVG/1.1/DTD/svg11.dtd">
<svg width="100%" height="100%" viewBox="0 0 58 58" version="1.1" xmlns="http://www.w3.org/2000/svg" xmlns:xlink="http://www.w3.org/1999/xlink" xml:space="preserve" xmlns:serif="http://www.serif.com/" style="fill-rule:evenodd;clip-rule:evenodd;stroke-linejoin:round;stroke-miterlimit:2;">
    <path d="M45.917,0L12.083,0C5.411,0 0,5.411 0,12.083L0,45.917C0,52.589 5.411,58 12.083,58L45.917,58C52.592,58 58,52.589 58,45.917L58,12.083C58,5.411 52.592,0 45.917,0ZM35.124,47.343C34.145,47.531 33.833,46.929 33.833,46.414L33.833,41.11C33.833,39.305 33.2,38.13 32.504,37.531C36.811,37.052 41.335,35.416 41.335,27.992C41.335,25.88 40.581,24.155 39.346,22.804C39.544,22.316 40.206,20.348 39.155,17.688C39.155,17.688 37.533,17.168 33.843,19.669C32.296,19.234 30.643,19.024 29,19.014C27.357,19.022 25.704,19.234 24.159,19.664C20.467,17.163 18.843,17.683 18.843,17.683C17.794,20.346 18.456,22.311 18.657,22.801C17.419,24.155 16.665,25.878 16.665,27.99C16.665,35.395 21.177,37.055 25.474,37.545C24.921,38.029 24.42,38.879 24.246,40.131C23.142,40.624 20.346,41.477 18.62,38.522C18.62,38.522 17.598,36.666 15.655,36.528C15.655,36.528 13.77,36.504 15.522,37.705C15.522,37.705 16.791,38.299 17.671,40.532C17.671,40.532 18.79,43.983 24.167,42.814L24.167,46.412C24.167,46.922 23.855,47.521 22.891,47.343C15.206,44.788 9.667,37.541 9.667,29C9.667,18.321 18.323,9.667 29,9.667C39.677,9.667 48.333,18.321 48.333,29C48.333,37.538 42.802,44.783 35.124,47.343Z" style="fill:url(#_Linear1);fill-rule:nonzero;"/>
    <defs>
        <linearGradient id="_Linear1" x1="0" y1="0" x2="1" y2="0" gradientUnits="userSpaceOnUse" gradientTransform="matrix(0.421308,52.6634,-52.6634,0.421308,27.1041,1.40436)"><stop offset="0" style="stop-color:rgb(82,45,91);stop-opacity:1"/><stop offset="0.55" style="stop-color:rgb(232,82,133);stop-opacity:1"/><stop offset="1" style="stop-color:rgb(255,236,179);stop-opacity:1"/></linearGradient>
    </defs>
</svg>
