<?xml version="1.0" encoding="UTF-8" standalone="no"?>
<!DOCTYPE svg PUBLIC "-//W3C//DTD SVG 1.1//EN" "http://www.w3.org/Graphics/SVG/1.1/DTD/svg11.dtd">
<svg width="100%" height="100%" viewBox="0 0 58 58" version="1.1" xmlns="http://www.w3.org/2000/svg" xmlns:xlink="http://www.w3.org/1999/xlink" xml:space="preserve" xmlns:serif="http://www.serif.com/" style="fill-rule:evenodd;clip-rule:evenodd;stroke-linejoin:round;stroke-miterlimit:2;">
    <path d="M45.917,0L12.083,0C5.411,0 0,5.411 0,12.083L0,45.917C0,52.589 5.411,58 12.083,58L45.917,58C52.592,58 58,52.589 58,45.917L58,12.083C58,5.411 52.592,0 45.917,0ZM19.333,45.917L12.083,45.917L12.083,19.333L19.333,19.333L19.333,45.917ZM15.708,16.269C13.374,16.269 11.479,14.36 11.479,12.006C11.479,9.652 13.374,7.743 15.708,7.743C18.043,7.743 19.938,9.652 19.938,12.006C19.938,14.36 18.045,16.269 15.708,16.269ZM48.333,45.917L41.083,45.917L41.083,32.374C41.083,24.234 31.417,24.851 31.417,32.374L31.417,45.917L24.167,45.917L24.167,19.333L31.417,19.333L31.417,23.599C34.79,17.349 48.333,16.888 48.333,29.582L48.333,45.917Z" style="fill:url(#_Linear1);fill-rule:nonzero;"/>
    <defs>
        <linearGradient id="_Linear1" x1="0" y1="0" x2="1" y2="0" gradientUnits="userSpaceOnUse" gradientTransform="matrix(-0.460279,54.2082,-54.2082,-0.460279,26.4019,1.1937)"><stop offset="0" style="stop-color:rgb(82,45,91);stop-opacity:1"/><stop offset="0.55" style="stop-color:rgb(232,82,133);stop-opacity:1"/><stop offset="1" style="stop-color:rgb(255,236,179);stop-opacity:1"/></linearGradient>
    </defs>
</svg>
